# AST/ASF file generated using VICON BodyLanguage
# -----------------------------------------------
:version 1.10
:name VICON
:units
  mass 1.0
  length 0.45
  angle deg
:documentation
   .ast/.asf automatically generated from VICON data using
   VICON BodyBuilder and BodyLanguage model FoxedUp or BRILLIANT.MOD
:root
   order TX TY TZ RX RY RZ
   axis XYZ
   position 0 0 0  
   orientation 0 0 0 
:bonedata
  begin
     id 1 
     name lhipjoint
     direction 0.547975 -0.797114 0.253638 
     length 2.36201 
     axis 0 0 0  XYZ
  end
  begin
     id 2 
     name lfemur
     direction 0.34202 -0.939693 0  
     length 7.69075  
     axis 0 0 20  XYZ
    dof rx ry rz
    limits (-160.0 20.0)
           (-70.0 70.0)
           (-60.0 70.0)
  end
  begin
     id 3 
     name ltibia
     direction 0.34202 -0.939693 0   
     length 7.91399   
     axis 0 0 20   XYZ
    dof rx
    limits (-10.0 170.0)
  end
  begin
     id 4 
     name lfoot
     direction 0.0705293 -0.193778 0.978507   
     length 2.13618   
     axis -90 7.62852e-016 20   XYZ
    dof rx rz
    limits (-45.0 90.0)
           (-70.0 20.0)
  end
  begin
     id 5 
     name ltoes
     direction 1.53592e-011 -4.21925e-011 1   
     length 1.07518   
     axis -90 7.62852e-016 20   XYZ
    dof rx
    limits (-90.0 20.0)
  end
  begin
     id 6 
     name rhipjoint
     direction -0.57 -0.782963 0.249136   
     length 2.4047  
     axis 0 0 0  XYZ 
  end
  begin
     id 7 
     name rfemur
     direction -0.34202 -0.939693 0   
     length 7.51486   
     axis 0 0 -20   XYZ
    dof rx ry rz
    limits (-160.0 20.0)
           (-70.0 70.0)
           (-70.0 60.0)
  end
  begin
     id 8 
     name rtibia
     direction -0.34202 -0.939693 0   
     length 8.08317   
     axis 0 0 -20   XYZ
    dof rx
    limits (-10.0 170.0)
 end
 begin
     id 9 
     name rfoot
     direction -0.104954 -0.281256 0.953876   
     length 2.30343  
     axis -90 -7.62852e-016 -20   XYZ
    dof rx rz
    limits (-45.0 90.0)
           (-20.0 70.0)
  end
  begin
     id 10 
     name rtoes
     direction -1.53556e-011 -4.21922e-011 1   
     length 1.14803   
     axis -90 -7.62852e-016 -20   XYZ
    dof rx
    limits (-90.0 20.0)
  end
  begin
     id 11 
     name lowerback
     direction -0.0152855 0.99353 -0.11254   
     length 2.05311   
     axis 0 0 0   XYZ
    dof rx ry rz
    limits (-20.0 45.0)
           (-30.0 30.0)
           (-30.0 30.0)
  end
  begin
     id 12 
     name upperback
     direction -0.00157509 0.999443 -0.033332   
     length 2.06353   
     axis 0 0 0   XYZ
    dof rx ry rz
    limits (-20.0 45.0)
           (-30.0 30.0)
           (-30.0 30.0)
  end
  begin
     id 13 
     name thorax
     direction 0.00577788 0.999804 0.0189484   
     length 2.08472   
     axis 0 0 0   XYZ
    dof rx ry rz
    limits (-20.0 45.0)
           (-30.0 30.0)
           (-30.0 30.0)
  end
  begin
     id 14 
     name lowerneck
     direction -1.09301e-005 0.994719 0.10264   
     length 1.76249   
     axis 0 0 0   XYZ
    dof rx ry rz
    limits (-20.0 45.0)
           (-30.0 30.0)
           (-30.0 30.0)
  end
  begin
     id 15 
     name upperneck
     direction 0.0495018 0.988526 -0.142706   
     length 1.77897   
     axis 0 0 0   XYZ
    dof rx ry rz
    limits (-20.0 45.0)
           (-30.0 30.0)
           (-30.0 30.0)
  end
  begin
     id 16
     name head
     direction 0.0142736 0.998114 -0.0597101  
     length 1.78934  
     axis 0 0 0   XYZ
    dof rx ry rz
    limits (-20.0 45.0)
           (-30.0 30.0)
           (-30.0 30.0)
  end
  begin
     id 17 
     name lclavicle
     direction 0.918111 0.396107 -0.0130883  
     length 3.37276  
     axis 0 0 0   XYZ
    dof ry rz
    limits (-20.0 10.0)
           (0.0 20.0)
  end
  begin
     id 18 
     name lhumerus
     direction 1 -4.48975e-011 -3.26108e-027   
     length 5.34298   
     axis 180 -30 -90   XYZ
    dof rx ry rz
    limits (-60.0 90.0)
           (-90.0 90.0)
           (-90.0 90.0)
  end
  begin
     id 19
     name lradius
     direction 1 -4.48964e-011 -8.84413e-028   
     length 3.67262   
     axis 180 -30 -90   XYZ
    dof rx
    limits (-10.0 170.0)
  end
  begin
     id 20
     name lwrist
     direction 1 -4.48991e-011 -1.24264e-027   
     length 1.83631   
     axis -2.17013e-015 90 90   XYZ
    dof ry
    limits (-180.0 0.0)
 end
  begin
     id 21 
     name lhand
     direction 1 -4.48855e-011 -2.48528e-027   
     length 0.599298   
     axis 1.58582e-015 90 90   XYZ
    dof rx rz
    limits (-90.0 90.0)
           (-45.0 45.0)
  end
  begin
     id 22 
     name lfingers
     direction 1 -4.48811e-011 -4.97056e-027   
     length 0.48317   
     axis 3.17164e-015 90 90   XYZ
    dof rx
    limits (0.0 90.0)
  end
  begin
     id 23
     name lthumb
     direction 0.707107 -6.34882e-011 0.707107   
     length 0.693738   
     axis -90 45 2.85299e-015   XYZ
    dof rx rz
    limits (-45.0 45.0)
           (-45.0 45.0)
  end
  begin
     id 24 
     name rclavicle
     direction -0.920511 0.384752 -0.0680135   
     length 3.43787  
     axis 0 0 0   XYZ 
    dof ry rz
    limits (-10.0 20.0)
           (-20.0 0.0)
  end
  begin
     id 25 
     name rhumerus
     direction -0.999976 -0.00330524 0.00603274  
     length 5.5498   
     axis 180 30 90   XYZ
    dof rx ry rz
    limits (-90.0 60.0)
           (-90.0 90.0)
           (-90.0 90.0)
  end
  begin
     id 26 
     name rradius
     direction -1 -4.48967e-011 8.62438e-027   
     length 3.69401   
     axis 180 30 90   XYZ
    dof rx
    limits (-10.0 170.0)
  end
  begin
     id 27 
     name rwrist
     direction -1 -4.4897e-011 9.54866e-027   
     length 1.84701   
     axis -7.69462e-015 -90 -90   XYZ
    dof ry
    limits (-180.0 0.0)
  end
  begin
     id 28
     name rhand
     direction -1 -4.48982e-011 1.90973e-026   
     length 0.638113   
     axis -1.21857e-014 -90 -90   XYZ
    dof rx rz
    limits (-90.0 90.0)
           (-45.0 45.0)
  end
  begin
     id 29
     name rfingers
     direction -1 -4.48936e-011 3.81946e-026   
     length 0.514463   
     axis -2.43714e-014 -90 -90   XYZ
    dof rx
    limits (0.0 90.0)
  end
  begin
     id 30
     name rthumb
     direction -0.707107 -6.34942e-011 0.707107   
     length 0.738669   
     axis -90 -45 -2.85299e-015   XYZ
    dof rx rz
    limits (-45.0 45.0)
           (-45.0 45.0)
  end
:hierarchy
  begin
    root lhipjoint rhipjoint lowerback
    lhipjoint lfemur
    lfemur ltibia
    ltibia lfoot
    lfoot ltoes
    rhipjoint rfemur
    rfemur rtibia
    rtibia rfoot
    rfoot rtoes
    lowerback upperback
    upperback thorax
    thorax lowerneck lclavicle rclavicle
    lowerneck upperneck
    upperneck head
    lclavicle lhumerus
    lhumerus lradius
    lradius lwrist
    lwrist lhand lthumb
    lhand lfingers
    rclavicle rhumerus
    rhumerus rradius
    rradius rwrist
    rwrist rhand rthumb
    rhand rfingers
  end

#!OML:ASF F:\twosubjects\two\Thursday\Session 1\Rory.ASF
:FULLY-SPECIFIED
:DEGREES
148
root 7.75445 10.7638 11.037 164.974 -6.75271 181.071
lowerback 41.8478 10.3028 -10.4165
upperback 15.7129 0.44372 -7.96422
thorax -2.4612 -2.87394 -3.34808
lowerneck -4.74084 -13.4405 -15.806
upperneck -13.7276 -17.738 28.5136
head 1.19669 -10.1122 10.4518
rclavicle 1.27222e-013 1.30403e-013
rhumerus 6.36223 1.94072 -74.0451
rradius 129.606
rwrist 7.85618
rhand -42.6835 43.3821
rfingers 7.12502
rthumb -15.5535 13.9875
lclavicle 1.27222e-013 1.30403e-013
lhumerus 52.5661 -7.54225 18.527
lradius 99.2663
lwrist 7.13193
lhand -9.89504 22.1924
lfingers 7.12502
lthumb 16.0847 51.5448
rfemur -71.6702 -17.2699 -4.43265
rtibia 104.098
rfoot 4.12506 0.0092217
rtoes -8.05355
lfemur -69.8956 17.2027 4.30063
ltibia 91.3177
lfoot -9.2268 -7.14105
ltoes -16.0131
149
root 7.74377 10.7698 11.0496 165.621 -7.28579 181.792
lowerback 41.2759 10.6307 -10.6959
upperback 16.0244 0.88737 -7.72915
thorax -1.94234 -2.70431 -3.137
lowerneck -4.12668 -13.9457 -16.1461
upperneck -14.5784 -18.4171 29.5015
head 1.17663 -10.6093 10.7889
rclavicle 1.59028e-014 -8.90555e-014
rhumerus 7.15401 -0.289693 -72.65
rradius 130.834
rwrist 8.34348
rhand -43.7116 45.2404
rfingers 7.12502
rthumb -16.5436 15.9256
lclavicle 1.59028e-014 -8.90555e-014
lhumerus 54.7369 -6.67359 19.063
lradius 99.4632
lwrist 6.46705
lhand -10.4325 21.8765
lfingers 7.12502
lthumb 15.5672 51.27
rfemur -71.3662 -17.8102 -3.73424
rtibia 103.271
rfoot 3.30145 -0.453988
rtoes -9.15212
lfemur -70.7615 16.8259 4.67776
ltibia 90.4651
lfoot -6.53024 -7.17596
ltoes -7.83699
150
root 7.73213 10.7665 11.047 166.26 -8.02347 182.23
lowerback 40.8363 10.9877 -11.377
upperback 16.3273 1.15911 -7.46903
thorax -1.46886 -2.65006 -2.64609
lowerneck -3.79577 -14.3639 -16.4072
upperneck -15.3984 -18.9794 30.5065
head 1.19249 -11.0521 11.1127
rclavicle -1.11319e-013 -8.90555e-014
rhumerus 7.62908 -2.09025 -71.2073
rradius 132.197
rwrist 8.55287
rhand -44.7783 44.9271
rfingers 7.12502
rthumb -17.5703 15.701
lclavicle -1.11319e-013 -8.90555e-014
lhumerus 56.924 -5.75053 19.6309
lradius 99.4215
lwrist 5.8411
lhand -12.0324 22.0858
lfingers 7.12502
lthumb 14.0258 51.5926
rfemur -70.7079 -18.5643 -3.53671
rtibia 102.386
rfoot 1.86759 -1.02497
rtoes -10.3608
lfemur -71.4579 16.2389 4.70665
ltibia 89.3756
lfoot -4.29341 -6.0042
ltoes -7.0022
151
root 7.7208 10.7854 11.0441 166.713 -8.62618 182.342
lowerback 40.7854 11.5934 -12.3226
upperback 16.5772 1.45348 -7.31756
thorax -1.16317 -2.62352 -2.16936
lowerneck -3.6799 -14.783 -16.5327
upperneck -16.1226 -19.5533 31.6078
head 1.2848 -11.5076 11.4162
rclavicle 1.145e-013 1.01778e-013
rhumerus 7.7906 -3.92624 -69.9256
rradius 133.372
rwrist 8.30417
rhand -45.6378 46.9276
rfingers 7.12502
rthumb -18.3973 17.7776
lclavicle 1.145e-013 1.01778e-013
lhumerus 59.2103 -5.06025 20.4352
lradius 99.635
lwrist 4.756
lhand -14.2287 22.1844
lfingers 7.12502
lthumb 11.9086 51.8257
rfemur -69.5726 -18.8795 -3.84828
rtibia 101.321
rfoot -0.369818 -1.43504
rtoes -10.8895
lfemur -71.5415 15.6961 4.50909
ltibia 87.9611
lfoot -2.08351 -5.00226
ltoes -8.78789
152
root 7.7121 10.8175 11.0443 167.217 -9.24102 182.552
lowerback 40.7437 12.0143 -13.3
upperback 16.6063 1.56524 -7.27253
thorax -1.10277 -2.63375 -1.7181
lowerneck -3.23446 -15.0697 -16.7808
upperneck -16.6534 -19.9778 32.7209
head 1.36959 -11.8839 11.7914
rclavicle -3.81667e-014 8.5875e-014
rhumerus 7.58016 -5.04527 -68.813
rradius 134.699
rwrist 7.9297
rhand -46.1456 47.6502
rfingers 7.12502
rthumb -18.8858 18.5471
lclavicle -3.81667e-014 8.5875e-014
lhumerus 60.4063 -4.74316 21.2139
lradius 100.262
lwrist 3.6383
lhand -14.1018 21.2936
lfingers 7.12502
lthumb 12.031 50.9278
rfemur -68.2115 -18.879 -4.16932
rtibia 100.139
rfoot -3.32153 -2.01423
rtoes -12.1777
lfemur -71.4496 15.0576 4.46735
ltibia 86.157
lfoot 0.552634 -4.8422
ltoes -9.23612
153
root 7.70388 10.8334 11.0361 167.622 -10.0559 183.003
lowerback 40.9888 12.0108 -14.1048
upperback 16.2637 1.24684 -7.40881
thorax -1.51777 -2.74325 -1.37117
lowerneck -2.32824 -15.0809 -16.8455
upperneck -16.8332 -20.082 33.4983
head 1.32953 -12.0759 12.1327
rclavicle 0 1.90833e-014
rhumerus 6.75971 -5.45247 -67.9078
rradius 136.093
rwrist 7.8609
rhand -46.1675 47.1041
rfingers 7.12502
rthumb -18.9068 18.003
lclavicle 0 1.90833e-014
lhumerus 59.8005 -4.47102 20.5101
lradius 100.814
lwrist 3.19978
lhand -13.0847 19.8849
lfingers 7.12502
lthumb 13.0116 49.4591
rfemur -66.4543 -18.9346 -4.47451
rtibia 99.04
rfoot -6.52213 -2.45635
rtoes -15.4818
lfemur -71.3133 14.2081 4.6354
ltibia 84.0464
lfoot 3.76192 -4.96874
ltoes -11.6209
154
root 7.69469 10.8466 11.025 167.976 -10.8097 183.744
lowerback 41.5529 11.7289 -14.3105
upperback 15.7745 0.732837 -7.82746
thorax -2.18624 -2.8648 -1.52449
lowerneck -1.76222 -15.0716 -16.7695
upperneck -16.5609 -20.1998 34.2684
head 1.45896 -12.2268 12.3944
rclavicle 6.67916e-014 3.81667e-014
rhumerus 5.55132 -5.75095 -67.3067
rradius 137.305
rwrist 7.76805
rhand -46.1702 47.0718
rfingers 7.12502
rthumb -18.9094 17.9709
lclavicle 6.67916e-014 3.81667e-014
lhumerus 59.9096 -4.68397 20.2903
lradius 101.903
lwrist 2.85094
lhand -11.9651 20.0005
lfingers 7.12502
lthumb 14.0906 49.5028
rfemur -64.9083 -18.7994 -4.58206
rtibia 98.232
rfoot -8.65495 -2.67375
rtoes -19.7921
lfemur -71.125 13.3757 5.27126
ltibia 81.8336
lfoot 8.07278 -4.8197
ltoes -12.195
155
root 7.68674 10.8746 11.0174 168.508 -11.5618 184.439
lowerback 41.6211 11.6045 -14.748
upperback 15.5807 0.453401 -7.93961
thorax -2.39165 -2.94726 -1.33365
lowerneck -1.59598 -15.2232 -17.0235
upperneck -16.4527 -20.5089 35.163
head 1.72224 -12.4644 12.6723
rclavicle 6.99722e-014 6.04305e-014
rhumerus 4.68828 -6.21101 -66.4661
rradius 138.281
rwrist 7.17558
rhand -46.0466 49.1654
rfingers 7.12502
rthumb -18.7905 20.053
lclavicle 6.99722e-014 6.04305e-014
lhumerus 60.224 -4.445 20.0702
lradius 103.104
lwrist 3.90606
lhand -11.3182 20.6613
lfingers 7.12502
lthumb 14.714 50.1191
rfemur -64.2639 -18.6421 -4.70191
rtibia 97.839
rfoot -8.96462 -2.63129
rtoes -24.3402
lfemur -71.1733 12.4828 6.02479
ltibia 80.0695
lfoot 9.64047 -3.41581
ltoes -19.871
156
root 7.66419 10.8588 10.9771 168.795 -12.5175 185.206
lowerback 41.6914 11.532 -15.173
upperback 15.6962 0.229954 -7.73981
thorax -2.24947 -3.0765 -0.852781
lowerneck -2.81156 -15.8102 -17.443
upperneck -15.8018 -21.3878 35.6502
head 2.472 -12.8032 12.5162
rclavicle -9.54166e-015 2.22639e-014
rhumerus 4.16991 -6.70678 -65.3078
rradius 138.922
rwrist 6.91045
rhand -46.0146 51.8283
rfingers 7.12502
rthumb -18.7597 22.7129
lclavicle -9.54166e-015 2.22639e-014
lhumerus 60.4147 -4.00387 20.222
lradius 104.161
lwrist 4.65545
lhand -10.5106 20.7184
lfingers 7.12502
lthumb 15.4919 50.1177
rfemur -63.9688 -19.1278 -4.95917
rtibia 97.9313
rfoot -8.56016 -1.6813
rtoes -27.7046
lfemur -71.788 11.9396 6.60051
ltibia 79.3443
lfoot 10.527 -2.14026
ltoes -21.5563
157
root 7.622 10.8785 10.9514 168.52 -13.0138 186.551
lowerback 41.6401 11.5958 -15.1147
upperback 16.1146 0.375124 -7.24297
thorax -1.774 -3.09028 -0.423229
lowerneck -3.0194 -16.1378 -17.4985
upperneck -16.4988 -21.836 36.3198
head 2.55739 -13.18 12.6371
rclavicle 9.85972e-014 9.85972e-014
rhumerus 3.82109 -7.20411 -63.7455
rradius 139.305
rwrist 7.31448
rhand -45.7363 53.1565
rfingers 7.12502
rthumb -18.4921 24.0155
lclavicle 9.85972e-014 9.85972e-014
lhumerus 60.4223 -3.47584 20.7466
lradius 104.868
lwrist 3.50566
lhand -11.2869 19.4566
lfingers 7.12502
lthumb 14.7441 48.9122
rfemur -63.0923 -18.8745 -4.56318
rtibia 97.6932
rfoot -8.50073 -0.74883
rtoes -29.2867
lfemur -72.6899 12.1204 7.3507
ltibia 80.1179
lfoot 10.2263 -4.10714
ltoes -15.022
158
root 7.5883 10.9088 10.9339 168.221 -13.3354 187.823
lowerback 41.884 11.6952 -15.031
upperback 16.2969 0.47565 -6.94229
thorax -1.64155 -3.0793 -0.194473
lowerneck -3.84924 -16.6159 -17.7942
upperneck -16.2346 -22.5402 36.7834
head 3.07944 -13.4958 12.5359
rclavicle 1.27222e-013 0
rhumerus 3.07837 -7.35497 -62.5946
rradius 139.758
rwrist 8.201
rhand -45.446 53.2505
rfingers 7.12502
rthumb -18.2128 24.0832
lclavicle 1.27222e-013 0
lhumerus 60.355 -3.21448 21.0377
lradius 105.477
lwrist 1.98779
lhand -12.8087 18.0491
lfingers 7.12502
lthumb 13.2776 47.6062
rfemur -62.1922 -18.1452 -4.27928
rtibia 97.5079
rfoot -8.52719 0.0933757
rtoes -28.8442
lfemur -73.6966 12.5176 7.91036
ltibia 81.2578
lfoot 9.73126 -5.23229
ltoes -12.5728
159
root 7.55308 10.9434 10.9032 167.999 -13.6799 188.126
lowerback 43.5383 12.1488 -15.6983
upperback 15.3676 0.105561 -6.96231
thorax -1.92594 -3.2352 -0.282023
lowerneck -7.56468 -17.8364 -18.7714
upperneck -12.8898 -24.3663 36.539
head 5.20043 -13.7044 11.5668
rclavicle 3.49861e-014 6.67916e-014
rhumerus 1.97907 -7.01056 -62.373
rradius 140.179
rwrist 9.67716
rhand -46.0996 53.2137
rfingers 7.12502
rthumb -18.8415 24.1062
lclavicle 3.49861e-014 6.67916e-014
lhumerus 60.3374 -3.15533 21.0902
lradius 107.084
lwrist 3.39422
lhand -10.6494 18.8036
lfingers 7.12502
lthumb 15.3583 48.2133
rfemur -61.2467 -17.383 -5.20006
rtibia 97.4005
rfoot -8.26619 1.67637
rtoes -25.5469
lfemur -73.9331 12.2469 7.68492
ltibia 81.6916
lfoot 9.28469 -4.38205
ltoes -10.6218
160
root 7.50667 10.9854 10.8761 167.856 -14.0239 188.525
lowerback 43.9246 12.3551 -16.0332
upperback 15.5482 -0.0661172 -7.1499
thorax -1.76487 -3.3897 -0.324077
lowerneck -5.91026 -17.4489 -17.8135
upperneck -14.8832 -23.9676 37.8854
head 4.40365 -14.0615 12.2101
rclavicle 6.99722e-014 2.22639e-014
rhumerus 1.29931 -7.03205 -62.0427
rradius 140.771
rwrist 10.2229
rhand -45.2462 52.568
rfingers 7.12502
rthumb -18.0205 23.3828
lclavicle 6.99722e-014 2.22639e-014
lhumerus 60.2806 -2.76859 21.0789
lradius 108.422
lwrist 3.81242
lhand -9.52561 19.1973
lfingers 7.12502
lthumb 16.4404 48.5207
rfemur -60.4129 -16.6746 -5.83053
rtibia 97.073
rfoot -7.56768 2.83663
rtoes -24.4735
lfemur -74.2456 11.8904 7.60721
ltibia 81.9541
lfoot 9.17855 -3.72659
ltoes -9.33132
161
root 7.45336 11.0265 10.8521 167.691 -14.3668 189.115
lowerback 44.1102 12.5792 -16.2734
upperback 15.8653 -0.0780491 -7.11063
thorax -1.42661 -3.49218 -0.217972
lowerneck -4.44433 -16.8175 -16.8566
upperneck -16.8681 -23.0905 38.7865
head 3.42142 -14.1633 12.8679
rclavicle 1.52667e-013 1.36764e-013
rhumerus 0.789495 -7.29882 -61.5814
rradius 141.224
rwrist 11.0592
rhand -43.7154 52.2147
rfingers 7.12502
rthumb -16.5472 22.9002
lclavicle 1.52667e-013 1.36764e-013
lhumerus 59.8246 -1.93946 20.3203
lradius 109.15
lwrist 3.494
lhand -10.772 18.3056
lfingers 7.12502
lthumb 15.2402 47.7242
rfemur -59.6722 -16.0118 -6.11636
rtibia 96.6457
rfoot -6.57084 3.22128
rtoes -27.6849
lfemur -74.6062 11.7847 7.58137
ltibia 82.0487
lfoot 9.42759 -3.96086
ltoes -7.92205
